<?xml version="1.0" standalone="no"?>
<!DOCTYPE svg PUBLIC "-//W3C//DTD SVG 20010904//EN"
 "http://www.w3.org/TR/2001/REC-SVG-20010904/DTD/svg10.dtd">
<svg version="1.0" xmlns="http://www.w3.org/2000/svg"
 width="700.000000pt" height="700.000000pt" viewBox="0 0 700.000000 700.000000"
 preserveAspectRatio="xMidYMid meet">
<metadata>
Created by potrace 1.11, written by Peter Selinger 2001-2013
</metadata>
<g transform="translate(0.000000,700.000000) scale(0.100000,-0.100000)"
fill="#000000" stroke="none">
<path d="M3102 6983 c-66 -23 -111 -75 -201 -231 -108 -188 -115 -205 -101
-248 6 -19 21 -41 33 -49 26 -18 97 -20 121 -2 9 7 59 84 109 172 78 134 97
160 118 163 18 2 85 -31 220 -109 1139 -656 1084 -623 1084 -652 0 -15 -152
-289 -370 -666 l-370 -641 -500 0 -500 1 -280 162 c-237 138 -280 167 -283
188 -2 16 85 175 282 516 156 271 287 501 291 513 9 30 -12 86 -40 104 -34 22
-96 21 -122 -3 -11 -11 -135 -217 -274 -459 l-254 -440 -360 -4 c-401 -5 -415
-7 -493 -74 -22 -19 -96 -114 -163 -212 -67 -97 -256 -368 -420 -602 -163
-234 -309 -447 -323 -474 l-26 -49 0 -1743 c0 -1243 3 -1758 11 -1796 36 -169
167 -300 337 -337 71 -15 5073 -16 5153 -1 81 15 173 63 233 120 86 82 146
216 146 330 0 74 -75 127 -140 100 -39 -16 -56 -44 -64 -109 -4 -30 -13 -69
-20 -86 -21 -50 -77 -106 -131 -131 l-50 -24 -2546 0 -2545 0 -55 28 c-35 18
-64 42 -84 70 l-30 44 0 1751 0 1752 2161 3 2161 2 42 -45 c36 -40 41 -50 40
-92 0 -27 -4 -70 -9 -98 -12 -71 4 -134 47 -184 46 -54 79 -70 177 -87 44 -8
90 -21 103 -30 13 -8 37 -42 53 -76 60 -124 118 -168 222 -168 44 0 71 8 136
40 44 22 90 40 101 40 12 0 50 -14 84 -32 34 -17 80 -37 102 -43 l40 -12 5
-1082 5 -1083 28 -24 c38 -33 96 -33 134 0 l28 24 5 1149 5 1148 33 62 c17 35
42 69 55 78 12 8 55 19 95 25 183 26 249 125 212 319 -13 68 -3 91 75 171 116
121 116 219 -2 341 -71 74 -83 101 -72 169 14 84 10 158 -11 199 -29 57 -84
98 -149 112 -172 34 -155 23 -216 138 -52 97 -99 133 -184 139 -53 4 -69 0
-149 -37 -49 -22 -96 -41 -105 -41 -8 0 -53 18 -99 41 -77 37 -88 40 -149 36
l-65 -4 -65 95 c-90 133 -148 195 -211 223 -52 23 -58 24 -445 27 -216 2 -393
6 -393 8 0 2 75 133 167 292 201 347 203 351 203 427 0 70 -23 126 -68 172
-18 17 -157 103 -309 191 -153 88 -447 257 -653 376 -206 119 -391 221 -410
226 -48 14 -97 11 -148 -7z m-1132 -1919 c0 -100 59 -168 234 -269 l130 -75
-88 0 c-87 0 -88 0 -122 -34 -47 -47 -47 -95 0 -142 l34 -34 1131 2 c1122 3
1131 3 1151 23 48 49 42 132 -13 165 -29 18 -51 20 -234 20 -112 0 -203 3
-202 8 0 4 46 86 102 182 l102 175 430 2 c331 2 436 0 455 -10 28 -14 208
-263 209 -289 1 -10 -11 -31 -26 -48 -24 -26 -41 -33 -111 -45 -98 -17 -152
-45 -187 -95 -41 -59 -48 -101 -34 -195 6 -45 9 -93 6 -106 -4 -13 -35 -54
-71 -90 -35 -37 -69 -83 -76 -103 l-12 -36 -2064 0 -2065 0 19 28 c11 15 160
230 332 477 325 469 342 492 375 505 11 5 149 9 308 9 l287 1 0 -26z m3622
-341 c67 -35 79 -38 158 -38 79 0 91 3 158 38 41 20 75 37 78 37 2 0 19 -31
38 -68 19 -38 46 -82 60 -98 37 -45 114 -82 202 -97 79 -14 79 -14 76 -43 -1
-16 -3 -69 -5 -119 -3 -112 16 -157 97 -238 31 -31 56 -61 56 -66 0 -5 -27
-36 -59 -69 -92 -94 -116 -178 -90 -316 6 -32 8 -60 5 -63 -2 -3 -39 -11 -81
-18 -139 -24 -195 -67 -260 -195 -29 -57 -38 -68 -52 -62 -10 5 -43 20 -74 35
-66 32 -139 47 -188 40 -20 -3 -72 -22 -117 -43 l-80 -37 -38 74 c-49 94 -107
146 -194 173 -35 11 -78 20 -96 20 -54 0 -59 9 -45 79 15 79 7 166 -21 221
-12 24 -47 70 -78 102 l-55 58 55 58 c97 101 122 183 99 317 -7 37 -10 70 -7
72 3 3 39 11 81 18 139 24 199 70 263 199 18 36 35 66 37 66 2 0 36 -17 77
-37z"/>
</g>
</svg>
